<svg width="572" height="1020" viewBox="0 0 572 1020" fill="none" xmlns="http://www.w3.org/2000/svg">
<g filter="url(#filter0_d)">
<path d="M101.5 -4.99998C101.5 -4.99998 -6.39457 35.0046 28.7221 148.719C42.8478 194.5 66.0995 223.83 178.062 296.056C230.148 329.632 290.847 393.157 285.546 516.415C285.546 516.415 284.176 584.564 216.716 689.98C205.869 706.766 198.248 725.421 194.22 745.045C186.756 782.226 188.752 836.901 242.919 882.133C242.919 882.133 310.799 932.991 441.463 934.331C441.463 934.331 517.642 936.992 570 970L570 406.5L570 -4.99988L101.5 -4.99998Z" fill="white"/>
</g>
<defs>
<filter id="filter0_d" x="0.693649" y="-5" width="598.306" height="1025" filterUnits="userSpaceOnUse" color-interpolation-filters="sRGB">
<feFlood flood-opacity="0" result="BackgroundImageFix"/>
<feColorMatrix in="SourceAlpha" type="matrix" values="0 0 0 0 0 0 0 0 0 0 0 0 0 0 0 0 0 0 127 0"/>
<feOffset dx="4" dy="25"/>
<feGaussianBlur stdDeviation="12.5"/>
<feColorMatrix type="matrix" values="0 0 0 0 0 0 0 0 0 0 0 0 0 0 0 0 0 0 0.15 0"/>
<feBlend mode="normal" in2="BackgroundImageFix" result="effect1_dropShadow"/>
<feBlend mode="normal" in="SourceGraphic" in2="effect1_dropShadow" result="shape"/>
</filter>
</defs>
</svg>
