<svg width="453" height="1148" viewBox="0 0 453 1148" fill="none" xmlns="http://www.w3.org/2000/svg">
<g filter="url(#filter0_i)">
<path d="M361.029 1136.94C361.029 1136.94 485.231 1087.53 444.735 954.523C428.446 900.975 401.658 866.979 272.708 784.453C212.72 746.089 142.798 672.682 148.832 527.567C148.832 527.567 150.37 447.367 227.98 321.887C240.46 301.904 249.224 279.793 253.851 256.62C262.423 212.718 260.094 148.442 197.703 96.4118C197.703 96.4118 119.52 38.0626 -30.9217 39.3334C-30.9217 39.3334 -118.632 37.8634 -178.933 0.174115L-178.614 663.069L-178.381 1147.15L361.029 1136.94Z" fill="#FFFFF0"/>
</g>
<defs>
<filter id="filter0_i" x="-178.933" y="0.174316" width="635.786" height="1171.98" filterUnits="userSpaceOnUse" color-interpolation-filters="sRGB">
<feFlood flood-opacity="0" result="BackgroundImageFix"/>
<feBlend mode="normal" in="SourceGraphic" in2="BackgroundImageFix" result="shape"/>
<feColorMatrix in="SourceAlpha" type="matrix" values="0 0 0 0 0 0 0 0 0 0 0 0 0 0 0 0 0 0 127 0" result="hardAlpha"/>
<feOffset dx="4" dy="25"/>
<feGaussianBlur stdDeviation="12.5"/>
<feComposite in2="hardAlpha" operator="arithmetic" k2="-1" k3="1"/>
<feColorMatrix type="matrix" values="0 0 0 0 0 0 0 0 0 0 0 0 0 0 0 0 0 0 0.15 0"/>
<feBlend mode="normal" in2="shape" result="effect1_innerShadow"/>
</filter>
</defs>
</svg>
