<svg width="243" height="35" viewBox="0 0 243 35" fill="none" xmlns="http://www.w3.org/2000/svg">
<path d="M20.7246 4.37876H12.2109V26.1573H7.47701V4.37876H0V0.318359H20.7246V4.37876Z" fill="white"/>
<path d="M40.6669 16.4123C40.6669 16.7322 40.6424 17.1875 40.5935 17.7781H25.2174C25.4866 19.23 26.1838 20.3866 27.3092 21.2479C28.459 22.0846 29.878 22.5029 31.566 22.5029C33.7189 22.5029 35.4926 21.7893 36.8871 20.362L39.3458 23.2043C38.4651 24.2624 37.3519 25.0622 36.0064 25.6036C34.6608 26.145 33.144 26.4157 31.4559 26.4157C29.303 26.4157 27.407 25.985 25.7679 25.1237C24.1288 24.2624 22.8566 23.0689 21.9514 21.5432C21.0707 19.9929 20.6303 18.2457 20.6303 16.3016C20.6303 14.3821 21.0585 12.6595 21.9147 11.1338C22.7954 9.58346 24.0064 8.37764 25.5477 7.51635C27.089 6.65505 28.826 6.2244 30.7587 6.2244C32.6669 6.2244 34.3672 6.65505 35.8596 7.51635C37.3764 8.35304 38.5507 9.54655 39.3825 11.0969C40.2388 12.6226 40.6669 14.3944 40.6669 16.4123ZM30.7587 9.91568C29.2908 9.91568 28.0431 10.3586 27.0156 11.2445C26.0126 12.1058 25.4009 13.2624 25.1807 14.7143H36.2999C36.1042 13.287 35.5048 12.1304 34.5018 11.2445C33.4987 10.3586 32.251 9.91568 30.7587 9.91568Z" fill="white"/>
<path d="M56.5464 6.2244C58.4546 6.2244 60.1549 6.64274 61.6473 7.47943C63.1641 8.31612 64.3506 9.49733 65.2069 11.0231C66.0631 12.5488 66.4913 14.3083 66.4913 16.3016C66.4913 18.2949 66.0631 20.0667 65.2069 21.617C64.3506 23.1427 63.1641 24.324 61.6473 25.1606C60.1549 25.9973 58.4546 26.4157 56.5464 26.4157C53.9042 26.4157 51.8125 25.5298 50.2712 23.758V33.3184H45.6841V6.44588H50.051V9.02977C50.8094 8.09465 51.7391 7.3933 52.84 6.92574C53.9654 6.45818 55.2008 6.2244 56.5464 6.2244ZM56.0326 22.466C57.7207 22.466 59.1029 21.9 60.1794 20.768C61.2803 19.636 61.8308 18.1472 61.8308 16.3016C61.8308 14.4559 61.2803 12.9671 60.1794 11.8351C59.1029 10.7031 57.7207 10.1372 56.0326 10.1372C54.9317 10.1372 53.9409 10.3955 53.0602 10.9123C52.1794 11.4045 51.4822 12.1181 50.9684 13.0533C50.4547 13.9884 50.1978 15.0712 50.1978 16.3016C50.1978 17.532 50.4547 18.6148 50.9684 19.5499C51.4822 20.485 52.1794 21.211 53.0602 21.7278C53.9409 22.2199 54.9317 22.466 56.0326 22.466Z" fill="white"/>
<path d="M90.3226 26.1573V13.0902L83.7171 24.0902H81.7355L75.2401 13.0533V26.1573H71.0566V6.44588H75.8639L82.8364 18.7747L90.1391 6.44588H94.4326L94.4693 26.1573H90.3226Z" fill="white"/>
<path d="M100.622 6.44588H105.209V19.4392L116.035 6.44588H120.218V26.1573H115.631V13.164L104.842 26.1573H100.622V6.44588Z" fill="white"/>
<path d="M126.389 6.44588H130.976V14.4559H140.847V6.44588H145.435V26.1573H140.847V18.3687H130.976V26.1573H126.389V6.44588Z" fill="white"/>
<path d="M158.885 6.2244C161.772 6.2244 163.974 6.92574 165.49 8.32843C167.032 9.7065 167.802 11.7982 167.802 14.6036V26.1573H163.472V23.758C162.909 24.6193 162.102 25.2837 161.05 25.7512C160.023 26.1942 158.775 26.4157 157.307 26.4157C155.839 26.4157 154.555 26.1696 153.454 25.6774C152.353 25.1606 151.497 24.4593 150.885 23.5734C150.298 22.6629 150.004 21.6416 150.004 20.5096C150.004 18.7378 150.653 17.3228 151.949 16.2647C153.27 15.1819 155.338 14.6405 158.151 14.6405H163.215V14.3452C163.215 12.9671 162.799 11.909 161.967 11.1707C161.16 10.4325 159.949 10.0633 158.334 10.0633C157.234 10.0633 156.145 10.2356 155.068 10.5801C154.016 10.9246 153.124 11.4045 152.39 12.0197L150.591 8.66064C151.619 7.87317 152.854 7.27026 154.298 6.85192C155.741 6.43357 157.27 6.2244 158.885 6.2244ZM158.261 23.0566C159.411 23.0566 160.426 22.7982 161.307 22.2814C162.212 21.7401 162.848 20.9772 163.215 19.9929V17.7043H158.481C155.839 17.7043 154.518 18.5779 154.518 20.3251C154.518 21.1618 154.848 21.8262 155.509 22.3184C156.169 22.8105 157.087 23.0566 158.261 23.0566Z" fill="white"/>
<path d="M189.001 10.3586H182.139V26.1573H177.552V10.3586H170.653V6.44588H189.001V10.3586Z" fill="white"/>
<path d="M233.055 6.2244C234.963 6.2244 236.664 6.64274 238.156 7.47943C239.673 8.31612 240.859 9.49733 241.716 11.0231C242.572 12.5488 243 14.3083 243 16.3016C243 18.2949 242.572 20.0667 241.716 21.617C240.859 23.1427 239.673 24.324 238.156 25.1606C236.664 25.9973 234.963 26.4157 233.055 26.4157C230.413 26.4157 228.321 25.5298 226.78 23.758V33.3184H222.193V6.44588H226.56V9.02977C227.318 8.09465 228.248 7.3933 229.349 6.92574C230.474 6.45818 231.71 6.2244 233.055 6.2244ZM232.541 22.466C234.229 22.466 235.612 21.9 236.688 20.768C237.789 19.636 238.34 18.1472 238.34 16.3016C238.34 14.4559 237.789 12.9671 236.688 11.8351C235.612 10.7031 234.229 10.1372 232.541 10.1372C231.44 10.1372 230.45 10.3955 229.569 10.9123C228.688 11.4045 227.991 12.1181 227.477 13.0533C226.963 13.9884 226.707 15.0712 226.707 16.3016C226.707 17.532 226.963 18.6148 227.477 19.5499C227.991 20.485 228.688 21.211 229.569 21.7278C230.45 22.2199 231.44 22.466 232.541 22.466Z" fill="white"/>
<path d="M221 16.5967H216.858C216.49 10.0812 211.237 4.82856 204.722 4.46081V0.318359H203.271V4.46081C196.763 4.82856 191.51 10.0812 191.142 16.5967H187V18.0469H191.142C191.51 24.5555 196.763 29.8082 203.278 30.1759V34.3184H204.729V30.1759C211.244 29.8082 216.497 24.5624 216.858 18.0469H221V16.5967ZM215.407 16.5967H212.07C211.73 12.6902 208.628 9.5955 204.722 9.24856V5.91101C210.446 6.27183 215.047 10.8722 215.407 16.5967ZM210.613 18.04C210.273 21.1416 207.775 23.591 204.722 23.931V21.7314H203.271V23.938C200.163 23.6049 197.713 21.1555 197.38 18.0469H199.587V16.5967H197.387C197.727 13.4951 200.225 11.0457 203.278 10.7057V12.9053H204.729V10.7057C207.782 11.0457 210.28 13.4951 210.62 16.5967H208.42V18.0469H210.613V18.04ZM203.278 5.90407V9.24162C199.372 9.58162 196.277 12.6833 195.93 16.5898H192.593C192.953 10.8653 197.554 6.26489 203.278 5.90407ZM192.593 18.0331H195.93C196.27 21.9396 199.372 25.0343 203.278 25.3812V28.7188C197.554 28.358 192.953 23.7575 192.593 18.0331ZM204.722 28.7188V25.3812C208.628 25.0412 211.723 21.9396 212.07 18.0331H215.407C215.047 23.7575 210.446 28.358 204.722 28.7188Z" fill="#E9ED2A"/>
<path d="M210.747 13.5827C211.09 13.4509 211.387 13.4667 211.734 13.5798C211.926 13.6459 212.128 13.7216 212.321 13.7877C212.089 13.6535 211.945 13.5966 211.81 13.5298C211.251 13.253 210.964 13.3154 210.469 13.5373C209.716 13.8702 208.911 13.8022 208.125 13.7927C208.048 13.7937 207.972 13.7947 207.895 13.7957C207.902 13.5997 207.891 13.4823 207.823 13.4146C207.755 13.3567 207.64 13.3386 207.449 13.3607C207.448 13.2823 207.437 13.2041 207.436 13.1258C207.378 12.3136 207.262 11.5022 207.539 10.7151C207.724 10.1937 207.768 9.89927 207.455 9.34505C207.376 9.20894 207.317 9.07258 207.171 8.84921C207.24 9.04419 207.339 9.2486 207.408 9.43379C207.547 9.7846 207.579 10.078 207.469 10.4418C207.304 11.0414 207.197 11.6402 207.196 12.2964C207.201 12.6979 207.195 13.0114 207.191 13.3934C206.853 13.241 206.863 13.2409 206.772 13.5849C206.744 13.6734 206.649 13.7334 206.574 13.8323C206.492 13.4514 206.376 13.3647 206.042 13.4865C205.918 13.5273 205.635 13.8052 205.379 14.0239C205.349 13.9264 205.319 13.8092 205.269 13.6728C205.14 13.3218 205.04 13.0391 204.886 12.9627C204.923 12.8643 204.931 12.7369 204.968 12.6385C205.07 12.3825 205.22 12.1455 205.39 11.9279C205.635 11.6113 205.9 11.3435 206.193 11.085C206.242 11.104 206.299 11.0935 206.327 11.0343C206.401 10.8571 206.397 10.5242 206.242 10.389C206.232 10.3794 206.223 10.3795 206.203 10.3699C206.231 10.3108 206.279 10.271 206.316 10.2118C206.363 10.1328 206.429 10.0536 206.495 9.98421C206.524 9.94467 206.466 9.90624 206.437 9.93599C206.371 10.0054 206.305 10.065 206.248 10.1441C206.201 10.2133 206.145 10.2728 206.107 10.3418C206.107 10.3516 206.108 10.3614 206.108 10.3614C206.108 10.3614 206.108 10.3614 206.108 10.3712C206.108 10.3908 206.108 10.4103 206.118 10.42C206.118 10.4298 206.108 10.4299 206.109 10.4397C206.109 10.4789 206.119 10.5081 206.129 10.5374C206.139 10.5764 206.149 10.6155 206.159 10.6545C206.159 10.6643 206.159 10.6643 206.159 10.6741C206.161 10.7623 206.162 10.8798 206.134 10.9585C206.135 10.9781 206.135 10.9976 206.145 11.0171C205.773 11.1982 205.434 11.6335 205.189 11.9305C205.038 12.1185 204.614 12.643 204.685 12.9457C204.533 13.0652 204.614 13.4168 204.715 13.7974C204.765 14.0025 204.806 14.188 204.846 14.3148C204.674 14.3268 204.52 14.319 204.386 14.2816C204.257 13.9502 203.895 13.3966 203.575 13.0775C203.236 12.7391 202.761 12.3339 202.591 12.4928C202.581 12.5027 202.572 12.5126 202.572 12.5224C202.085 12.6462 201.618 12.8187 201.151 13.0598C200.78 13.2506 200.285 13.4921 200.012 13.8482C200.002 13.8385 199.993 13.819 199.964 13.8096C199.762 13.7339 199.417 13.7579 199.276 13.9458C199.266 13.9557 199.267 13.9753 199.257 13.9852C199.199 13.9566 199.141 13.8985 199.083 13.8699C198.987 13.8124 198.909 13.7448 198.822 13.6872C198.774 13.6584 198.746 13.7175 198.775 13.7563C198.853 13.8337 198.921 13.9014 199.017 13.9589C199.095 14.0069 199.162 14.0746 199.239 14.103C199.249 14.1028 199.259 14.1027 199.268 14.1026C199.268 14.1026 199.268 14.1026 199.278 14.1025C199.297 14.1022 199.316 14.0922 199.335 14.0919C199.345 14.0918 199.345 14.1016 199.354 14.1015C199.393 14.101 199.431 14.0809 199.459 14.0707C199.498 14.0605 199.545 14.0403 199.583 14.03C199.593 14.0299 199.593 14.0299 199.603 14.0297C199.698 14.0285 199.823 14.0171 199.909 14.0454C199.948 14.0547 199.976 14.0347 199.995 14.0051C200.469 13.6366 200.954 13.317 201.506 13.065C201.792 12.934 202.087 12.7931 202.392 12.6912C202.44 12.6808 202.497 12.6703 202.545 12.6599C202.596 12.8845 202.869 13.2531 203.055 13.5642C203.251 13.9142 203.426 14.147 203.562 14.3118C203.334 14.3931 203.115 14.5134 202.887 14.6632C202.868 14.6635 202.848 14.6539 202.829 14.6542C202.378 14.5621 201.802 14.4617 201.689 14.6591C201.68 14.6592 201.68 14.6592 201.67 14.6691C201.109 14.9897 200.616 15.3683 200.143 15.8249C199.774 16.1822 199.282 16.6391 199.116 17.1505C199.107 17.18 199.097 17.1801 199.087 17.1802C198.839 17.1932 198.477 17.384 198.413 17.6395C198.413 17.659 198.414 17.6786 198.414 17.6884C198.337 17.6796 198.26 17.6512 198.174 17.6425C198.049 17.6246 197.934 17.5967 197.818 17.5688C197.751 17.55 197.752 17.6382 197.801 17.6669C197.916 17.7144 198.022 17.7522 198.147 17.7702C198.243 17.7886 198.349 17.8264 198.454 17.825C198.464 17.8249 198.473 17.8248 198.483 17.8149L198.492 17.8147C198.511 17.8047 198.53 17.7849 198.549 17.7748C198.559 17.7747 198.568 17.7746 198.578 17.7745C198.616 17.7544 198.644 17.7246 198.682 17.6948C198.72 17.6649 198.758 17.6252 198.796 17.5954C198.805 17.5952 198.805 17.5854 198.815 17.5853C198.92 17.535 199.043 17.4746 199.148 17.4537C199.225 17.4331 199.243 17.3545 199.223 17.2764C199.627 16.713 200.062 16.2079 200.573 15.7508C200.848 15.5024 201.132 15.2441 201.445 15.0344C201.531 14.9745 201.635 14.8948 201.72 14.835C201.789 14.9614 202.001 15.0958 202.262 15.2198C201.4 16.0046 200.685 17.0422 200.471 17.515C200.08 18.3721 199.833 19.2568 200.036 20.2042C200.098 20.507 200.169 20.7999 200.182 21.1132C200.186 21.3874 200.226 21.5435 200.323 21.65C200.43 21.7466 200.593 21.7739 200.852 21.7608C201.158 21.747 201.446 21.8021 201.744 21.8472C202.684 21.9918 203.533 21.6773 204.341 21.2261C204.788 20.9755 205.765 20.1794 206.471 19.2497C206.608 19.5026 206.755 19.7162 206.88 19.7733C206.824 19.8622 206.758 19.9806 206.711 20.0693C206.524 20.3949 206.289 20.7016 206.072 20.9982C205.658 21.552 205.194 22.0281 204.673 22.4755C204.606 22.4568 204.52 22.4873 204.511 22.5559C204.503 22.6638 204.448 22.8016 204.401 22.9099C204.401 22.9197 204.392 22.9199 204.392 22.9296C204.364 22.9692 204.335 23.0087 204.307 23.0483C204.279 23.078 204.25 23.1176 204.232 23.157C204.232 23.1668 204.232 23.1766 204.232 23.1863C204.223 23.2061 204.204 23.2259 204.204 23.2455L204.204 23.2553C204.195 23.2652 204.195 23.275 204.195 23.2848C204.196 23.3827 204.246 23.4898 204.266 23.5875C204.287 23.7145 204.336 23.8216 204.385 23.9287C204.405 23.9774 204.491 23.9665 204.471 23.908C204.441 23.7909 204.392 23.674 204.371 23.5469C204.36 23.4687 204.321 23.3909 204.31 23.3127C204.33 23.3124 204.339 23.3221 204.358 23.312C204.606 23.2305 204.764 22.8465 204.761 22.5919C204.761 22.5821 204.761 22.5625 204.751 22.5529C205.237 22.3507 205.651 21.8165 205.982 21.4205C206.397 20.9059 206.735 20.3726 207.014 19.7814C207.014 19.7716 207.014 19.7716 207.014 19.7618C207.194 19.642 207.062 19.056 206.942 18.607C206.941 18.5874 206.932 18.568 206.922 18.5485C207.053 18.3118 207.155 18.0754 207.219 17.8395C207.393 17.9744 207.635 18.128 207.982 18.3096C208.3 18.472 208.677 18.7316 208.898 18.7679C208.889 18.8268 208.89 18.8758 208.881 18.9249C208.808 19.2392 208.688 19.5542 208.577 19.8592C208.364 20.43 208.093 20.9526 207.764 21.4563C207.735 21.4763 207.726 21.5058 207.727 21.5449C207.757 21.6327 207.758 21.76 207.759 21.8579C207.76 21.8677 207.76 21.8677 207.76 21.8775C207.751 21.9168 207.742 21.9659 207.733 22.0052C207.724 22.0445 207.705 22.0741 207.705 22.1133C207.705 22.1231 207.705 22.1231 207.715 22.1327C207.715 22.1523 207.706 22.172 207.706 22.1916C207.706 22.1916 207.706 22.1916 207.706 22.2014C207.707 22.2112 207.707 22.221 207.707 22.2308C207.746 22.3086 207.814 22.3763 207.863 22.454C207.922 22.5414 207.999 22.609 208.077 22.6863C208.115 22.7152 208.172 22.6851 208.143 22.6365C208.075 22.5492 208.007 22.4718 207.948 22.3844C207.909 22.3261 207.861 22.2778 207.822 22.2195C207.831 22.2194 207.85 22.2093 207.86 22.1994C208.03 22.0503 208.025 21.688 207.946 21.4931C207.937 21.4737 207.927 21.464 207.908 21.4545C208.239 21.1564 208.443 20.6347 208.61 20.2408C208.815 19.7582 208.952 19.2667 209.041 18.7563C209.051 18.7464 209.061 18.7463 209.07 18.7266C209.211 18.5386 208.784 18.0838 208.435 17.7553C208.105 17.4462 207.536 17.1205 207.208 17.0072C207.159 16.8707 207.138 16.7045 207.145 16.5379C207.28 16.5753 207.462 16.6024 207.664 16.6389C208.048 16.7123 208.393 16.7667 208.497 16.6086C208.804 16.6634 209.286 16.1969 209.457 16.0282C209.731 15.7602 210.128 15.383 210.286 14.9892C210.305 14.9987 210.325 14.9985 210.344 14.9982C210.42 14.9678 210.535 14.9664 210.621 14.9555C210.631 14.9553 210.631 14.9553 210.64 14.9552C210.679 14.9645 210.717 14.9738 210.755 14.9733C210.784 14.9827 210.823 14.992 210.851 14.9917C210.861 14.9916 210.861 14.9916 210.87 14.9816C210.89 14.9814 210.909 14.9909 210.918 14.981C210.918 14.981 210.918 14.981 210.928 14.9809C210.937 14.9808 210.947 14.9807 210.947 14.9807C211.014 14.9406 211.07 14.8713 211.137 14.8215C211.212 14.7618 211.269 14.6925 211.335 14.6133C211.363 14.5835 211.324 14.5253 211.286 14.5551C211.211 14.6247 211.154 14.694 211.069 14.7538C211.021 14.7936 210.974 14.8432 210.927 14.8732C210.926 14.8634 210.917 14.8439 210.907 14.8343C210.761 14.6794 210.445 14.6933 210.274 14.7836C210.217 14.8138 210.218 14.8725 210.237 14.9212C210.002 15.2377 209.766 15.5247 209.473 15.7929C209.274 15.9816 209.056 16.1509 208.808 16.2716C208.713 16.3218 208.589 16.3332 208.494 16.3736C208.405 16.218 208.126 16.1335 207.78 16.0204C207.636 15.9733 207.521 15.9454 207.424 15.927C207.632 15.6599 207.877 15.3434 207.913 15.2156C208.014 14.8715 207.917 14.7552 207.543 14.6915C207.637 14.6021 207.694 14.5034 207.779 14.473C208.104 14.361 208.113 14.3609 207.937 14.0302C208.31 13.996 208.606 13.9726 208.999 13.948C209.602 13.9402 210.175 13.7859 210.747 13.5827Z" fill="#F7FC00"/>
</svg>
